<?xml version="1.0" encoding="UTF-8"?>
<svg id="_Слой_1" data-name="Слой 1" xmlns="http://www.w3.org/2000/svg" viewBox="0 0 34.83 34.08">
  <defs>
    <style>
      .cls-1 {
        fill: #5c0bd8;
        stroke-width: 0px;
      }
    </style>
  </defs>
  <path class="cls-1" d="M30.49.23c2.08-.83,4.34.7,4.34,2.94v22.22c0,2.1-1.38,3.95-3.39,4.55l-13.58,4.07c-.3.09-.61.09-.91,0l-13.58-4.07c-2.01-.6-3.39-2.45-3.39-4.55V3.17C0,.93,2.26-.6,4.34.23l13.07,5.23L30.49.23ZM15.83,8.24L3.17,3.17v22.22c0,.7.46,1.32,1.13,1.52l11.54,3.46V8.24ZM19,30.37l11.54-3.46c.67-.2,1.13-.82,1.13-1.52V3.17l-12.67,5.07v22.13Z"/>
</svg>