<?xml version="1.0" encoding="UTF-8"?>
<svg id="_Слой_1" data-name="Слой 1" xmlns="http://www.w3.org/2000/svg" viewBox="0 0 34.04 34.04">
  <defs>
    <style>
      .cls-1 {
        fill: #5c0bd8;
        stroke-width: 0px;
      }
    </style>
  </defs>
  <path class="cls-1" d="M17.02,34.04C7.63,34.04,0,26.41,0,17.02S7.63,0,17.02,0s17.02,7.63,17.02,17.02-7.63,17.02-17.02,17.02ZM17.02,2.37c-8.07,0-14.65,6.57-14.65,14.65s6.57,14.65,14.65,14.65,14.65-6.57,14.65-14.65S25.1,2.37,17.02,2.37Z"/>
  <path class="cls-1" d="M14.77,22.69c-.32,0-.62-.13-.84-.35l-4.48-4.48c-.46-.46-.46-1.22,0-1.68.46-.46,1.22-.46,1.68,0l3.64,3.64,8.14-8.14c.46-.46,1.22-.46,1.68,0,.46.46.46,1.22,0,1.68l-8.98,8.98c-.22.22-.52.35-.84.35Z"/>
</svg>